<?xml version="1.0" encoding="utf-8"?>
<!-- Generator: Adobe Illustrator 21.0.2, SVG Export Plug-In . SVG Version: 6.00 Build 0)  -->
<svg version="1.1" id="Layer_1" xmlns="http://www.w3.org/2000/svg" xmlns:xlink="http://www.w3.org/1999/xlink" x="0px" y="0px"
	 viewBox="0 0 1920 690" style="enable-background:new 0 0 1920 690;" xml:space="preserve">
<style type="text/css">
	.st0{fill:#d4a373;}
	.st1{fill:#d4a373;}
</style>
<path class="st0" d="M77.7,338.5c0.7-68.4,22.6-128.7,67.2-179.7c30.8-35.2,68.9-59.8,113.2-74.5c53.8-17.8,107.8-18.5,161.4-1
	c54.9,17.9,100,50.8,134,98.5c23.5,32.9,38.3,69.9,45.3,109.9c4.1,23.6,5.3,47.5,2.8,71.2c-5.4,51.1-21.8,98-53.2,139
	c-7,9.2-14.5,17.8-22.3,26.2c-2.5,2.7-4.4,3.3-7.6,0.7c-5.9-4.8-12.2-9.1-18.4-13.5c-3-2.2-3.9-3.6-0.5-6.9
	c32.8-31.7,54.2-70.4,65.2-114.7c12.2-49.5,7.7-98.1-11.2-145.3c-20.2-50.4-53.9-89.1-100-115.9c-57.1-33.2-118-40.2-180.6-20.4
	c-63.3,20-110,61.3-139.8,121.8c-20,40.7-28.1,84.1-23,129.5c2.6,22.8,7.7,45.1,17.5,66c0.9,1.8,1.4,3.8,2.1,5.8
	c1,2.7,0.3,3.7-2.6,3.6c-8.8-0.3-17.7-0.4-26.5-0.5c-3.6,0-5.4-1.7-6.6-5.1C83.2,402.5,77.5,371,77.7,338.5z"/>
<path class="st1" d="M656.4,558.8c-1.2,5.8-5.1,9.3-8.4,13.1c-26.7,30.1-59.5,37.5-97.2,27.1c-33.2-9.2-60.8-28.3-87.4-49.6
	c-18.1-14.5-36.1-28.9-56-40.8c-23.2-13.8-48.4-20.9-74.9-21.2c-67.5-0.7-135-0.4-202.4-0.2c-7.4,0-11.8-2.1-14.6-9.1
	c-2.2-5.5-5.2-10.6-8-15.8c-2.2-3.9-0.9-5.1,3-4.9c2.3,0.1,4.5,0,6.8,0c66.5,0,132.9,0.2,199.4-0.2c35.6-0.2,69.8,5.7,101.4,22.7
	c18.7,10.1,36.2,22.3,52.6,36.2c14.8,12.5,30.2,24.1,46.5,34.5c18.1,11.5,36.8,21.9,57.9,25.9c24.9,4.8,49.2,3,70.9-12.8
	c2.7-1.9,5.5-3.7,8.3-5.4C654.5,558.1,655.2,558.5,656.4,558.8z"/>
<path class="st0" d="M795.5,326.7c5.5,4.7,10.6,7.9,16.1,10.5c15.6,7.6,30.1,5.7,42.8-6c5.1-4.7,7.6-3.2,11.1,1.4
	c7.9,10,8,9.9-2.3,17.8c-21.2,16.3-43.3,15.9-66,3.8c-8.3-4.4-16.1-9.7-22.7-16.4c-6-6-13.2-9-21.4-10.4
	c-52-8.7-83.4-53.6-76.1-106.7c6-43.3,43-74.6,86.1-76.7c24.9-1.2,48.5,3.7,68.5,20.3c25.5,21.1,35.5,48.7,32.5,81.3
	c-2.7,29.4-16.3,52.6-41,68.4C814.9,319.4,805.7,323,795.5,326.7z M840,236.9c0.7-39.2-28.9-69.9-67.1-71.6
	c-43.3-1.9-72.3,34.7-72.4,69.5c-0.1,39.8,29.2,71.2,68.5,72.2C808.5,308,839.3,277.6,840,236.9z"/>
<path class="st0" d="M1362.6,460.4c11.7-17.1,28-24,47.5-24.4c32.4-0.7,53.1,17.6,54.6,50.6c1.2,27,0.4,54.1,0.7,81.2
	c0,3.3-1,4.9-4.3,4.4c-0.5-0.1-1,0-1.5,0c-18.1,0.4-18,0.4-18.2-17.9c-0.2-21.4,0.2-42.8-0.8-64.1c-1.1-23.1-15.1-34.7-37.6-32.7
	c-19,1.7-32.2,16.6-32.8,38.5c-0.6,22.9-0.5,45.9-0.2,68.8c0.1,6.1-1.4,8.2-7.4,7.5c-5.5-0.6-13.1,1.7-15.9-1.2
	c-2.8-2.9-1-10.6-1.1-16.3c-0.2-22.2,0-44.3-0.6-66.5c-0.4-15.6-9.4-26.7-22.8-30c-16.9-4.1-32.9,1.7-40.4,15
	c-5.2,9.1-7.2,19-7,29.5c0.2,20.9-0.1,41.8,0.3,62.6c0.1,5.6-1.5,6.8-6.7,6.8c-17.8-0.1-17.8,0.1-17.8-18.1c0-36.3,0.1-72.7-0.1-109
	c0-5.8,1.2-8.9,7.5-7.6c1.5,0.3,3,0.1,4.5,0.1c10.3,0.1,10.3,0.1,10.7,10.4c0.1,1.7-0.9,4.1,0.9,4.9c2.3,1.1,3.6-1.4,4.7-2.8
	c15.4-18.6,55.9-19,73.8-2.3C1356.3,451.4,1358.9,455.7,1362.6,460.4z"/>
<path class="st0" d="M1530.2,455.3c30.2-28.9,73.4-22.9,94.8,0.9c22.9,25.5,22.8,72.4,0.4,97.1c-22.6,25-66.7,30.1-95.8-1.2
	c0,5.8-0.1,10.3,0,14.7c0.2,3.9-1,5.1-5.2,5.2c-18.5,0.5-18.4,0.7-18.4-17.9c0-54.1,0.1-108.2-0.1-162.3c0-5.7,1.1-7.5,7-7.4
	c17.1,0.3,17.2,0.1,17.2,17.6C1530.3,419.3,1530.2,436.5,1530.2,455.3z M1618.5,504.3c-0.1-1.6-0.2-5.5-0.8-9.3
	c-2.6-18.7-17.5-35.1-34.1-37.7c-31-4.9-53.3,15-53.6,47.8c-0.2,27.4,18.4,47,45,47.4C1600.5,552.9,1618.2,534.1,1618.5,504.3z"/>
<path class="st0" d="M136.3,505.5c14,0,26.5,0,39.1,0c2.4,0,3.6,1.5,5.1,2.9c24.9,24.4,53.9,42.2,86.3,54
	c35.7,13.1,72.4,14.5,109.7,9.1c19.1-2.8,37.3-8.7,55-16.4c4.6-2,8.2-2.2,12.2,1.7c5.1,5,10.9,9.2,16.6,13.5c3,2.2,4.3,3.5,0.1,5.6
	c-18.7,9.7-38.2,16.9-58.8,21.6c-11.5,2.6-23,4.8-34.7,6.1c-22.2,2.4-44.3,1.4-66.4-1.6c-31.7-4.4-61.4-14.7-89.1-30.6
	c-27.1-15.6-51.6-35-71.6-59.6C138.7,510.3,138,508.6,136.3,505.5z"/>
<path class="st0" d="M764.4,574.1c-19.6,0.8-39.6-6.7-57-21.3c-22-18.6-32.1-43-31.5-71.9c0.7-34.6,15.2-61.8,44.9-78.7
	c33.5-19,81.5-17.5,111.2,12.7c3.7,3.8,3.1,5.3-0.2,8.1c-4,3.5-7.3,9.6-11.7,10.5c-4.5,0.9-7.7-6-11.8-9.2
	c-28.3-21.5-79.6-17.7-100.2,24.9c-16.7,34.6-5.2,76.5,27.7,95.1c24.9,14.1,60.4,9.4,79.9-11.6c3.4-3.7,4.9-3.2,7.5,0
	c0.6,0.8,1.4,1.4,2.2,2.1c11.2,10.5,11.2,10.5-0.9,20.5C808.2,568.9,789.8,575,764.4,574.1z"/>
<path class="st0" d="M1502.1,279c0,14.4-0.2,28.9,0.1,43.3c0.1,3.1-0.5,4.3-3.5,4.2c-2.8-0.1-5.6,0-8.3,0c-10.4,0-10.4,0-11.2-10.6
	c-0.1-1.4,0.7-3.6-1.4-3.7c-1.5-0.1-3.4,1-4.5,2.2c-18.3,18.2-39.9,16.4-61.1,8.8c-17.9-6.4-25-21.3-23.2-41.8
	c1.3-15,12.4-26.8,29.3-31.4c15.7-4.3,31.6-2.8,47.5-3c13.7-0.1,13.7-0.1,11.3-13.8c-2.2-13-12.1-21.9-26.6-22.9
	c-15.8-1.2-30.8,1.9-43.6,11.9c-4,3.2-5.1,2-7.2-1.6c-8.2-13.8-8.4-14,6.3-21.8c21.5-11.3,44-12.6,66.8-4.9
	c19.2,6.4,26.9,22.2,28.5,41.1c1.2,14.6,0.2,29.3,0.2,44C1501.8,279,1502,279,1502.1,279z M1455,264.1c0,0.2,0,0.3,0,0.5
	c-7,0-14.1-0.1-21.1,0.1c-2,0-3.9,0.8-5.9,1.4c-9.1,2.6-14.1,8.4-15,17.1c-1,10.6,2.3,18.2,11.3,22.1c13.5,5.8,27,5.3,39.7-2.6
	c13-8.1,14.5-21.1,14.3-34.9c-0.1-3.5-2.1-3.5-4.5-3.5C1467.6,264.1,1461.3,264.1,1455,264.1z"/>
<path class="st0" d="M1150.6,573.9c-37.5,2-69.1-27.1-69.3-69.7c-0.1-39.3,28.1-68,68.4-68.4c39-0.4,68,28.5,68,68.7
	C1217.7,545.6,1188.4,574.1,1150.6,573.9z M1136.1,551.7c0.1,0.4,0.3,0.8,0.4,1.2c0.2-0.4,0.4-0.7,0.6-1.1
	c9.7,0.2,19.6,2.4,29.1-1.9c20-9.1,30.9-32.2,26.3-55.8c-6.6-33.7-40.3-49-67.9-30.1c-16.4,11.3-21.2,28.9-18.8,48.2
	C1108.2,531.3,1118.1,544.9,1136.1,551.7z"/>
<path class="st0" d="M1821.6,557.6c-20.1,21.3-52.9,19.4-70.7,9.2c-13.5-7.7-20.6-22.5-18.3-38.3c2.4-16.7,12.7-28.5,28.3-32.3
	c17-4.1,34.2-2.7,51.4-2.7c10.1,0,10.4-0.2,8.8-10.3c-3-18.5-13-26.9-31.6-27.1c-15.9-0.1-30.3,4.2-42.9,14.9
	c-1.4-2.3-2.6-4.2-3.8-6.2c-7.3-12.1-7.6-12.7,4.6-18.9c23.9-12.3,48.6-14.6,73.7-3.3c12.7,5.7,18.8,16.3,22.4,29.5
	c2.3,8.6,2.6,17,2.6,25.7c0.1,22.7-0.1,45.4,0.1,68c0,4.5-0.5,6.6-5.7,6c-5-0.6-10.6,1.3-15-0.4
	C1819.7,569.4,1825.1,562.2,1821.6,557.6z M1798.8,510.7c-10.8,0.2-21.8-1.9-32,3.6c-6.5,3.5-11.5,8.8-11.6,16.4
	c-0.2,8.5,3.1,16.5,11,20.3c14.7,7.1,29.2,6.1,42.7-3.7c10.5-7.6,13.3-18.6,12.7-31.1c-0.2-4-1.6-5.5-5.4-5.5
	C1810.4,510.7,1804.6,510.7,1798.8,510.7z"/>
<path class="st0" d="M922.6,573.8c-39.3,1.6-69.2-32.6-68.2-69.5c1.1-40.7,28.7-68.6,70.1-68.5c38.6,0.1,66.5,29.4,66.7,69.6
	C991.3,544.6,960.8,575.1,922.6,573.8z M878.5,503.2c3.1,35,20.1,51.8,49.8,49.2c24.4-2.2,40.7-23.9,38.5-51.4
	c-2.4-28.8-22.1-46.2-48.5-44.6C895.3,457.7,874.8,485,878.5,503.2z"/>
<path class="st0" d="M999.1,309.1c-3.8,1.1-5.1,4.2-7.3,6.1c-20.9,18.1-59.1,15.5-75.4-0.3c-9.7-9.4-15.4-20.6-16.5-33.7
	c-2.5-28.8-0.7-57.7-1.2-86.5c-0.1-3.3,1.1-4.3,4.4-4.4c19.8-0.9,19.6-1,19.8,19c0.2,21.1-0.9,42.2,0.5,63.3
	c1.2,17.7,11.2,30.3,26.4,33.2c17.6,3.4,37.6-5.3,43.6-20.5c3.2-8.1,5.3-17,5.3-26.2c-0.1-20.6,0.2-41.2-0.1-61.8
	c-0.1-5.3,1-7.1,6.5-7.1c17.4,0,17.3-0.2,17.4,17.5c0.1,37.9,0.2,75.7,0.5,113.6c0,3.6-0.7,5.4-4.5,5c-0.2,0-0.5,0-0.8,0
	C1000.4,327,1000.4,327,999.1,309.1z"/>
<path class="st0" d="M1156.5,208.4c17.3-18.3,37.4-22,59-17.5c23.7,4.9,37.4,20.9,39.1,45.6c2,28.5,0.9,57.2,0.7,85.7
	c0,3-0.8,3.9-3.7,4.2c-20.1,2.3-20.3,2.2-20.3-18c0-20.4,0.2-40.7-0.1-61.1c-0.2-11.5-2.8-22.4-12.6-30c-21.5-16.7-56.9-2.2-60,25.1
	c-2.9,25.4-1.1,51-1.2,76.4c0,6.3-1.6,7.7-7.4,7.6c-16.8-0.2-16.8,0-16.8-17.4c0-36.8,0.1-73.7-0.2-110.5c-0.1-6.7,2.1-8.8,8.1-7.7
	c4.8,0.8,11.3-2.3,14.2,1.9C1157.4,196.1,1156.1,202.1,1156.5,208.4z"/>
<path class="st0" d="M1582.4,327.5c-13.3,0.6-29.2-3.4-44.1-12c-4.8-2.8-6.1-5.3-3.2-10.8c6-11.5,5.4-11.1,17.3-5.9
	c17.9,7.9,36.4,12.8,55.7,4.6c6.1-2.6,10.6-7,10.6-14.5c0.1-7.9-3.1-11.1-13.4-15.2c-11-4.3-22.5-5.6-33.9-7.6
	c-9.9-1.8-18.7-5.7-26.3-12.1c-12.1-10.2-11.9-36.4,0-48.5c8.6-8.7,19.1-13.6,30.8-15.2c19.9-2.7,39.2-0.4,57.6,8.6
	c4.6,2.3,4.3,4.3,2.5,8.2c-6.4,13.5-6.2,13.3-19.9,7.8c-13.3-5.3-27-6.5-40.9-3c-9.6,2.4-14.4,7.6-14.9,16
	c-0.5,7.4,3.8,13.3,13.5,16.1c10.7,3.1,21.6,5.1,32.5,7.3c5.7,1.2,11.2,2.8,16.6,5.2c11.5,4.9,18.4,13.7,19.5,26.3
	c1.3,14.2-2.6,26.6-15,34.7C1615.3,325.4,1603.7,328,1582.4,327.5z"/>
<path class="st0" d="M457.3,481.7c-6-2.7-9.6-5.6-9.6-13.4c0.3-63.2,0-126.3,0.3-189.5c0-7.8-2.1-12.3-9.1-16.3
	c-31.9-18.7-63.3-38.1-94.8-57.5c-3.1-1.9-5.1-2.1-8.2-0.3c-32.4,19.9-64.8,39.7-97.3,59.5c-4.2,2.6-6.3,5.3-6.3,10.9
	c0.3,51.6,0.3,103.1,0.3,154.7c0,4.1,1.5,9.1-5.8,8.8c-4.2-0.2-5.7-1.3-5.7-5.8c0.1-54.4,0.1-108.8-0.1-163.2
	c0-5.5,1.9-8.7,6.6-11.6c36.3-21.9,72.4-44,108.5-66.2c2.9-1.8,4.7-1.5,7.4,0.1c36.6,22.3,73.4,44.5,110.1,66.6
	c3.1,1.9,4.6,4.1,4.6,8c-0.2,70.9-0.2,141.8-0.3,212.7C458,479.8,457.7,480.5,457.3,481.7z"/>
<path class="st0" d="M1301.2,252.5c0-11.9-0.2-23.7,0.1-35.6c0.1-4.3-1.1-6.3-5.5-5.7c-1.5,0.2-3,0.2-4.5,0
	c-4.2-0.5-10.6,2.1-12.1-1.2c-2.1-4.7-0.8-11.1-0.8-16.7c0-1.8,1.1-2.8,2.9-2.8c0.8,0,1.5,0.1,2.3,0.1c5.7-0.4,13.3,3.3,16.5-1.2
	c2.8-3.9,1-11.4,1.2-17.2c0.3-12.6,0.2-12.6,12.9-12.6c1.5,0,3.1,0.2,4.5,0c4.7-0.6,7,0.8,6.5,6.3c-0.5,6.1,0.3,12.4-0.2,18.5
	c-0.4,5.4,1.7,6.8,6.5,6.6c8.3-0.4,16.7-0.2,25-0.7c4.2-0.2,5.7,0.9,5.8,5.5c0.3,15.4,0.5,15.2-14.3,15.4
	c-7.3,0.1-16.6-3.1-21.3,1.2c-4.8,4.5-1.2,14.1-1.4,21.5c-0.3,16.5-0.2,33-0.1,49.5c0.2,20.5,14.4,29.6,32.8,20.8
	c4.5-2.1,6.2-2.3,8.2,3c5.1,13.7,3.6,17-11,19.4c-7.8,1.3-15.7,1.3-23.4,0.2c-18.7-2.6-30.2-17.5-30.6-39.6
	C1301,275.7,1301.2,264.1,1301.2,252.5C1301.2,252.5,1301.2,252.5,1301.2,252.5z"/>
<path class="st0" d="M232.6,233c29.5-18,57.2-34.9,84.9-51.7c6.5-3.9,13.2-7.5,19.5-11.7c2.8-1.9,4.4-1,6.7,0.4
	c49,30.1,98.1,60.1,147.1,90.1c10.6,6.5,21,13.4,32,19.2c5.9,3.2,4.1,8,3.5,11.9c-0.6,4.1-3.7,0.7-5.1-0.2
	c-21.3-12.9-42.4-25.9-63.6-38.9c-37-22.6-74.1-45.1-111-67.9c-5.8-3.6-9.5-1.9-14.7,1.3c-29.9,18.7-60.1,36.8-90.3,55.2
	c-4.8,2.9-9.7,5.6-14.3,8.7c-4.1,2.8-6,3-5.8-3c0.2-10.8,0-21.6-0.3-32.5c-0.1-2.7,2.3-7.3-3.5-7.4c-5.6-0.1-4,4.1-4.1,7.1
	c-0.1,12.9-0.2,25.8,0,38.7c0,3.3-0.5,5.6-3.6,7.4c-8.7,5.2-17.3,10.6-25.9,16c-7.6,4.8-15.1,10-22.9,14.5c-2.1,1.2-5.3,6-7.1,1.9
	c-1.5-3.3-2.9-9.1,2.4-12.3c13.4-8.2,26.7-16.7,40.3-24.6c4.6-2.6,6.4-5.5,6.2-10.8c-0.4-14.4,0-28.9-0.4-43.3
	c-0.1-4.6,1.4-5.8,5.6-5.5c7.8,0.4,17.8-2.5,22.8,1.4c4.7,3.7,0.9,14.5,1.5,22.1C232.9,223.2,232.6,227.2,232.6,233z"/>
<path class="st0" d="M1048.5,478.3c0,28.8-0.1,57.6,0.1,86.5c0.1,5.5-0.9,7.6-6.9,7.5c-17.6-0.2-17.4,0.1-17.4-18
	c0.1-54,0.2-108.1,0-162.1c0-6.1,1.4-7.8,7.4-7.6c16.6,0.4,16.6,0.2,16.6,17.3c0,25.5,0,51,0,76.4
	C1048.4,478.3,1048.5,478.3,1048.5,478.3z"/>
<path class="st1" d="M397,402c-1.1-16.4,1.7-33.4-1.7-50.3c-5.9-29.2-31.8-48-62.4-45.5c-26.8,2.2-49.1,26.8-49.7,55.4
	c-0.4,23.2,0,46.4-0.1,69.6c0,3.7,1,7.4-5.5,7.4c-6.1-0.1-6.5-2.4-6.5-7.3c0.5-25.2-1.4-50.5,1-75.7c2.8-29.3,21.6-50.4,51.4-59
	c24.2-7,53.6,3.4,70.1,24.2c9.6,12.2,14,25.8,14.5,41.3c0.9,28.1,0.7,56.2,0.5,84.3c0,2.3,2.8,7.4-2.1,7.1c-4.2-0.2-9.7-1.1-9.5-8.4
	C397.2,430.9,397,416.7,397,402z"/>
<path class="st0" d="M1673.9,504.8c0-20.4,0.1-40.7-0.1-61.1c-0.1-5,1.4-7.1,6.5-6.2c5.7,1,13-2.8,16.7,1.2
	c3.6,3.9,1.1,11.3,1.1,17.2c0.1,36.6,0,73.2,0.2,109.7c0,5.7-1.8,6.8-6.9,6.8c-17.6,0-17.6,0.2-17.6-17.3
	C1673.9,538.2,1673.9,521.5,1673.9,504.8z"/>
<path class="st1" d="M389.5,401c0,13.1,0.1,26.3-0.1,39.4c0,2.3,1.8,6.4-3,6.3c-4-0.1-8.5-0.2-8.9-6.1c-0.1-2.1-0.1-4.1-0.1-6.2
	c0-23.9,0.1-47.9-0.2-71.8c-0.2-17.2-11.5-32.4-26.7-36.3c-17.3-4.5-34.3,2.4-43.1,17.6c-4.5,7.8-5.6,16.5-5.6,25.3
	c0,21.1,0.1,42.2,0.4,63.3c0,3.8-0.8,6.3-4.8,6c-3.4-0.3-7-0.1-7-5.7c0.3-24.2-0.7-48.5,0.4-72.6c1.3-27.6,24.5-47.7,51.7-46.5
	c25.7,1.2,46.5,23.5,46.7,50.3c0.1,12.4,0,24.7,0,37.1C389.4,401,389.4,401,389.5,401z"/>
<path class="st0" d="M1089.6,258.6c0,20.9-0.1,41.7,0.1,62.6c0.1,4.2-1.1,5.1-5,5.2c-19.1,0.6-19.1,0.7-19.1-18.7
	c0-36.6,0.1-73.2-0.2-109.8c0-5.9,1.6-7.4,7.2-7.3c16.9,0.2,16.9,0,16.9,17c0,17,0,34,0,51C1089.5,258.6,1089.5,258.6,1089.6,258.6z
	"/>
<path class="st0" d="M466.9,267.2c19.7,11.9,38.5,23.3,57.3,34.6c2.1,1.3,3.9,11.2,2.3,12.6c-1.8,1.7-3.3-0.2-4.7-1.1
	c-12.8-7.8-25.4-15.7-38.2-23.5c-1.6-1-3.2-3.3-5.3-2.1c-2.2,1.2-0.8,3.7-0.8,5.6c-0.1,67.5,0,135,0,203.5
	c-6.2-3.8-11.1-6.4-11-15.2c0.4-70.1,0.2-140.1,0.3-210.2C466.7,270.5,466.8,269.4,466.9,267.2z"/>
<path class="st1" d="M515.5,456.9c0-35.2,0-70.4,0-105.5c0-6.9-0.1-6.9-7.6-10.3c0,7.1,0,13.6,0,20.2c0,35-0.1,70,0.1,105.1
	c0,6.1-3,10.1-6.5,14.2c-0.8,1-1.7,2.1-3.1,1.7c-1.5-0.5-1.4-1.9-1.4-3.2c0-1,0-2.1,0-3.1c0-48.4,0-96.8,0.1-145.2
	c0-9.2-0.3-8.2,7.9-5.1c17.4,6.5,23.3,17.7,21.9,36.9c-1.8,25.3-0.1,50.9,0.1,76.4c0,7.9-5.6,12.7-9.1,18.7
	C517,457.3,516.3,457.1,515.5,456.9z"/>
<path class="st0" d="M213.5,266.3c0,37.7,0,73.5,0,109.3c0,18.8,0,37.6,0.3,56.4c0.1,4.5-0.8,6.3-5.7,6.5c-5.4,0.2-5.5-2.4-5.4-6.5
	c0.2-45.9,0.2-91.8,0.2-137.6c0-2.2,1.2-5.1-0.9-6.4c-2.2-1.3-4.1,1.3-5.9,2.4c-11.6,7.2-23.1,14.6-34.8,21.7
	c-2.2,1.3-5.5,5.6-7.3,2c-1.4-2.8-2.1-8,1.6-11.4c0.4-0.3,0.8-0.6,1.2-0.9C175,290.2,194.1,279.8,213.5,266.3z"/>
<path class="st1" d="M183.1,380.3c0,17-0.1,34,0,51c0,4.1-0.4,6.8-5.6,6.9c-5.4,0.1-5.4-3-5.4-6.9c0.1-27.6,0.2-55.1,0-82.7
	c0-2.4,2.5-7.3-2.2-7.2c-3.3,0.1-5.4,3.7-5.3,8c0.2,27,0.2,54.1,0.1,81.1c0,3.1,1.2,7.1-4.1,7.5c-4.3,0.3-7.1-0.3-7.1-6
	c0.2-28.8,0.1-57.7,0-86.5c0-3.3,0.7-6.1,3.3-8.2c5.9-4.7,12-9.2,18.6-12.8c5.6-3,7.7-1.5,7.7,4.8c-0.1,17,0,34,0,51
	C183.2,380.3,183.1,380.3,183.1,380.3z"/>
<path class="st0" d="M1686.4,382.5c9.2,0.2,16.5,7.1,16.4,15.5c-0.1,9.1-7.1,15.6-16.4,15.3c-9.8-0.3-16-6.6-15.8-15.9
	C1670.9,388.3,1677.2,382.3,1686.4,382.5z"/>
<path class="st0" d="M1063,151.1c0-10,5-15.3,14.5-15.2c10,0.2,15.8,5.8,16,15.5c0.2,9.1-6.6,15.9-15.8,15.8
	C1068.4,167,1063,161.2,1063,151.1z"/>
<path class="st1" d="M1136.1,551.7l0.6-0.2c0,0,0.5,0.4,0.5,0.4c-0.2,0.4-0.4,0.7-0.6,1.1C1136.4,552.6,1136.2,552.1,1136.1,551.7z"
	/>
</svg>
