<?xml version="1.0" encoding="utf-8"?>
<!-- Generator: Adobe Illustrator 21.0.2, SVG Export Plug-In . SVG Version: 6.00 Build 0)  -->
<svg version="1.1" id="Layer_1" xmlns="http://www.w3.org/2000/svg" xmlns:xlink="http://www.w3.org/1999/xlink" x="0px" y="0px"
	 viewBox="0 0 1080 1403" style="enable-background:new 0 0 1080 1403;" xml:space="preserve">
<style type="text/css">
	.st0{fill:#43443F;}
	.st1{fill:#A99A71;}
</style>
<path class="st0" d="M125.8,486.5c1-100.1,33.1-188.4,98.4-263.1c45.1-51.6,100.9-87.5,165.7-109c78.7-26.1,157.8-27.1,236.3-1.5
	C706.6,139,772.6,187.2,822.4,257c34.4,48.2,56.1,102.3,66.3,161c6.1,34.5,7.8,69.5,4.1,104.3c-8,74.8-32,143.5-77.8,203.5
	c-10.3,13.4-21.2,26.1-32.7,38.4c-3.7,3.9-6.4,4.9-11.1,1.1c-8.6-7-17.9-13.3-27-19.8c-4.4-3.2-5.8-5.3-0.8-10.1
	c48-46.4,79.4-103.1,95.5-168c17.9-72.5,11.3-143.7-16.4-212.8c-29.6-73.7-78.9-130.5-146.5-169.8c-83.6-48.6-172.7-58.9-264.4-29.9
	C319,184.2,250.5,244.7,207,333.3c-29.3,59.7-41.1,123.1-33.7,189.6c3.7,33.4,11.2,66,25.6,96.6c1.3,2.7,2.1,5.6,3.1,8.4
	c1.5,3.9,0.5,5.4-3.9,5.2c-12.9-0.4-25.9-0.7-38.9-0.7c-5.3,0-8-2.6-9.7-7.4C133.9,580.3,125.5,534.2,125.8,486.5z"/>
<path class="st1" d="M973,809.1c-1.8,8.5-7.4,13.7-12.3,19.1c-39.1,44.1-87.1,55-142.2,39.7c-48.6-13.5-89.1-41.5-127.9-72.6
	c-26.4-21.2-52.9-42.3-82.1-59.7c-34-20.2-70.9-30.6-109.7-31c-98.8-1.1-197.6-0.7-296.4-0.3c-10.8,0-17.3-3.1-21.4-13.3
	c-3.2-8-7.6-15.5-11.8-23.1c-3.2-5.7-1.3-7.4,4.4-7.2c3.3,0.1,6.7-0.1,10-0.1c97.3,0,194.7,0.3,292-0.3
	c52.1-0.3,102.2,8.3,148.5,33.2c27.4,14.8,53.1,32.7,77,53c21.6,18.4,44.2,35.3,68.1,50.5c26.5,16.8,53.9,32,84.8,38
	c36.5,7,72.1,4.3,103.7-18.7c3.9-2.8,8-5.4,12.1-7.9C970.4,808.1,971.3,808.7,973,809.1z"/>
<path class="st0" d="M279.9,1126.6c4,3.4,7.8,5.7,11.7,7.7c11.4,5.5,21.9,4.1,31.2-4.4c3.7-3.4,5.5-2.3,8.1,1
	c5.7,7.3,5.8,7.2-1.7,13c-15.4,11.9-31.5,11.6-48.1,2.8c-6.1-3.2-11.7-7.1-16.6-12c-4.4-4.4-9.6-6.6-15.6-7.6
	c-37.9-6.3-60.8-39.1-55.4-77.8c4.4-31.6,31.4-54.4,62.8-55.9c18.2-0.9,35.3,2.7,50,14.8c18.6,15.3,25.9,35.5,23.7,59.3
	c-1.9,21.4-11.9,38.3-29.9,49.9C294,1121.3,287.3,1123.9,279.9,1126.6z M312.4,1061.1c0.5-28.6-21.1-50.9-48.9-52.2
	c-31.6-1.4-52.7,25.3-52.8,50.7c-0.1,29,21.3,51.9,50,52.7C289.4,1113,311.8,1090.8,312.4,1061.1z"/>
<path class="st0" d="M617.6,1224c8.5-12.4,20.4-17.5,34.6-17.8c23.6-0.5,38.7,12.8,39.8,36.9c0.9,19.7,0.3,39.4,0.5,59.2
	c0,2.4-0.7,3.6-3.2,3.2c-0.4-0.1-0.7,0-1.1,0c-13.2,0.3-13.1,0.3-13.2-13c-0.1-15.6,0.1-31.2-0.6-46.8c-0.8-16.9-11-25.3-27.4-23.9
	c-13.9,1.2-23.5,12.1-23.9,28.1c-0.4,16.7-0.4,33.4-0.1,50.2c0.1,4.4-1,6-5.4,5.5c-4-0.4-9.6,1.2-11.6-0.9
	c-2.1-2.1-0.7-7.8-0.8-11.9c-0.1-16.2,0-32.3-0.4-48.5c-0.3-11.4-6.9-19.5-16.6-21.9c-12.3-3-24,1.3-29.5,10.9
	c-3.8,6.6-5.2,13.8-5.1,21.5c0.2,15.2-0.1,30.4,0.3,45.6c0.1,4.1-1.1,5-4.9,5c-13-0.1-13,0.1-13-13.2c0-26.5,0.1-53-0.1-79.5
	c0-4.2,0.8-6.5,5.5-5.6c1.1,0.2,2.2,0.1,3.3,0.1c7.5,0.1,7.5,0.1,7.8,7.6c0,1.2-0.6,3,0.7,3.6c1.7,0.8,2.6-1,3.5-2
	c11.2-13.6,40.7-13.9,53.8-1.7C613,1217.5,614.9,1220.7,617.6,1224z"/>
<path class="st0" d="M739.8,1220.4c22-21.1,53.5-16.7,69.1,0.6c16.7,18.6,16.6,52.8,0.3,70.8c-16.5,18.3-48.6,22-69.8-0.8
	c0,4.3-0.1,7.5,0,10.7c0.1,2.8-0.7,3.7-3.8,3.8c-13.5,0.3-13.4,0.5-13.4-13.1c0-39.4,0.1-78.9,0-118.3c0-4.1,0.8-5.5,5.1-5.4
	c12.5,0.2,12.5,0,12.5,12.9C739.9,1194.1,739.8,1206.6,739.8,1220.4z M804.2,1256.1c-0.1-1.2-0.2-4-0.5-6.8
	c-1.9-13.6-12.7-25.6-24.9-27.5c-22.6-3.6-38.9,10.9-39.1,34.9c-0.2,20,13.4,34.3,32.8,34.5C791,1291.5,804,1277.8,804.2,1256.1z"/>
<path class="st0" d="M211.6,731c20.4,0,38.8,0.1,57.2,0c3.5,0,5.3,2.2,7.4,4.3c36.5,35.7,78.9,61.7,126.3,79.1
	c52.3,19.1,106.1,21.2,160.6,13.3c28-4.1,54.7-12.7,80.6-24c6.7-2.9,12-3.3,17.9,2.5c7.4,7.3,15.9,13.5,24.3,19.7
	c4.4,3.2,6.3,5.1,0.1,8.2c-27.4,14.2-55.9,24.8-86.1,31.6c-16.9,3.8-33.7,7-50.8,8.9c-32.5,3.5-64.8,2.1-97.2-2.4
	c-46.4-6.4-90-21.5-130.5-44.8c-39.7-22.8-75.5-51.2-104.8-87.3C215.1,738.1,214.2,735.6,211.6,731z"/>
<path class="st0" d="M181.5,1306.9c-14.3,0.6-28.9-4.9-41.5-15.6c-16-13.5-23.4-31.3-22.9-52.4c0.5-25.3,11.1-45.1,32.7-57.4
	c24.4-13.9,59.4-12.8,81.1,9.3c2.7,2.7,2.2,3.9-0.2,5.9c-2.9,2.6-5.3,7-8.5,7.7c-3.3,0.6-5.6-4.4-8.6-6.7
	c-20.6-15.7-58.1-12.9-73.1,18.2c-12.2,25.2-3.8,55.8,20.2,69.3c18.2,10.3,44,6.9,58.2-8.4c2.5-2.7,3.6-2.3,5.4,0
	c0.5,0.6,1,1.1,1.6,1.6c8.2,7.6,8.2,7.6-0.7,14.9C213.5,1303.2,200.1,1307.6,181.5,1306.9z"/>
<path class="st0" d="M795,1091.8c0,10.5-0.1,21,0.1,31.5c0,2.3-0.4,3.1-2.5,3c-2-0.1-4.1,0-6.1,0c-7.6,0-7.6,0-8.2-7.7
	c-0.1-1,0.5-2.7-1-2.7c-1.1,0-2.4,0.8-3.3,1.6c-13.3,13.3-29.1,11.9-44.6,6.4c-13.1-4.7-18.2-15.5-16.9-30.5
	c0.9-10.9,9-19.6,21.4-22.9c11.4-3.1,23.1-2.1,34.6-2.2c10-0.1,10,0,8.2-10c-1.6-9.5-8.9-15.9-19.4-16.7
	c-11.5-0.9-22.5,1.4-31.8,8.7c-2.9,2.3-3.7,1.4-5.2-1.1c-6-10.1-6.1-10.2,4.6-15.9c15.7-8.3,32.1-9.2,48.7-3.6
	c14,4.7,19.6,16.2,20.8,30c0.9,10.6,0.2,21.4,0.2,32.1C794.8,1091.8,794.9,1091.8,795,1091.8z M760.7,1080.9c0,0.1,0,0.2,0,0.4
	c-5.1,0-10.3-0.1-15.4,0c-1.4,0-2.9,0.6-4.3,1c-6.6,1.9-10.3,6.1-10.9,12.4c-0.7,7.7,1.7,13.3,8.2,16.1c9.8,4.2,19.7,3.9,29-1.9
	c9.4-5.9,10.6-15.4,10.4-25.5c0-2.6-1.5-2.6-3.2-2.6C769.9,1080.9,765.3,1080.9,760.7,1080.9z"/>
<path class="st0" d="M463,1306.8c-27.3,1.5-50.4-19.7-50.5-50.8c-0.1-28.7,20.5-49.6,49.8-49.9c28.4-0.3,49.6,20.8,49.6,50.1
	C512,1286.2,490.7,1307,463,1306.8z M452.5,1290.6c0.1,0.3,0.2,0.6,0.3,0.9c0.2-0.3,0.3-0.5,0.5-0.8c7.1,0.2,14.3,1.7,21.2-1.4
	c14.6-6.7,22.5-23.5,19.1-40.7c-4.8-24.6-29.3-35.8-49.5-21.9c-11.9,8.2-15.4,21.1-13.7,35.2
	C432.1,1275.7,439.4,1285.7,452.5,1290.6z"/>
<path class="st0" d="M952.2,1294.9c-14.6,15.6-38.6,14.1-51.5,6.7c-9.8-5.6-15-16.4-13.4-27.9c1.7-12.2,9.3-20.8,20.6-23.5
	c12.4-3,24.9-1.9,37.4-2c7.4,0,7.6-0.2,6.4-7.5c-2.2-13.5-9.5-19.6-23.1-19.7c-11.6-0.1-22.1,3.1-31.3,10.8c-1-1.7-1.9-3.1-2.7-4.5
	c-5.3-8.8-5.5-9.2,3.3-13.8c17.4-9,35.4-10.6,53.7-2.4c9.2,4.2,13.7,11.9,16.3,21.5c1.7,6.2,1.9,12.4,1.9,18.7
	c0,16.5-0.1,33.1,0.1,49.6c0,3.3-0.4,4.8-4.1,4.4c-3.6-0.4-7.7,0.9-10.9-0.3C950.9,1303.5,954.8,1298.2,952.2,1294.9z M935.6,1260.7
	c-7.8,0.1-15.9-1.4-23.3,2.6c-4.7,2.6-8.3,6.4-8.5,11.9c-0.1,6.2,2.2,12,8,14.8c10.7,5.2,21.3,4.4,31.1-2.7
	c7.7-5.6,9.7-13.6,9.2-22.7c-0.1-2.9-1.2-4-3.9-4C944.1,1260.7,939.8,1260.7,935.6,1260.7z"/>
<path class="st0" d="M296.8,1306.7c-28.6,1.2-50.4-23.8-49.7-50.6c0.8-29.7,20.9-50,51.1-49.9c28.1,0.1,48.5,21.5,48.6,50.7
	C347,1285.4,324.7,1307.7,296.8,1306.7z M264.7,1255.3c2.2,25.5,14.6,37.8,36.3,35.8c17.8-1.6,29.7-17.5,28-37.5
	c-1.7-21-16.1-33.7-35.3-32.5C277,1222.1,262,1242,264.7,1255.3z"/>
<path class="st0" d="M428.3,1113.8c-2.8,0.8-3.7,3-5.4,4.4c-15.3,13.2-43.1,11.3-55-0.2c-7.1-6.9-11.2-15-12-24.6
	c-1.8-21-0.5-42-0.9-63.1c0-2.4,0.8-3.1,3.2-3.2c14.4-0.6,14.3-0.7,14.5,13.8c0.2,15.4-0.6,30.8,0.4,46.2
	c0.9,12.9,8.2,22.1,19.3,24.2c12.8,2.5,27.4-3.9,31.8-14.9c2.4-5.9,3.9-12.4,3.8-19.1c-0.1-15,0.1-30-0.1-45.1
	c-0.1-3.9,0.7-5.2,4.7-5.2c12.7,0,12.6-0.1,12.7,12.8c0.1,27.6,0.2,55.2,0.4,82.8c0,2.7-0.5,4-3.3,3.6c-0.2,0-0.4,0-0.6,0
	C429.3,1126.8,429.3,1126.8,428.3,1113.8z"/>
<path class="st0" d="M543.1,1040.3c12.6-13.3,27.2-16,43-12.8c17.2,3.6,27.3,15.2,28.5,33.2c1.4,20.8,0.7,41.7,0.5,62.5
	c0,2.2-0.6,2.8-2.7,3.1c-14.6,1.7-14.8,1.6-14.8-13.1c0-14.8,0.2-29.7-0.1-44.5c-0.2-8.4-2.1-16.4-9.2-21.9
	c-15.7-12.2-41.5-1.6-43.7,18.3c-2.1,18.5-0.8,37.1-0.9,55.7c0,4.6-1.2,5.6-5.4,5.5c-12.2-0.2-12.2,0-12.3-12.7
	c0-26.9,0.1-53.7-0.1-80.6c0-4.9,1.5-6.4,5.9-5.6c3.5,0.6,8.2-1.7,10.3,1.4C543.7,1031.4,542.8,1035.7,543.1,1040.3z"/>
<path class="st0" d="M853.5,1127.2c-9.7,0.4-21.3-2.5-32.2-8.7c-3.5-2-4.5-3.9-2.4-7.9c4.4-8.4,4-8.1,12.6-4.3
	c13,5.8,26.6,9.3,40.6,3.3c4.4-1.9,7.7-5.1,7.7-10.6c0-5.8-2.2-8.1-9.7-11.1c-8-3.1-16.4-4.1-24.7-5.6c-7.2-1.3-13.6-4.1-19.2-8.8
	c-8.8-7.5-8.7-26.5,0-35.3c6.2-6.4,13.9-9.9,22.5-11.1c14.5-2,28.6-0.3,42,6.3c3.4,1.6,3.2,3.2,1.8,6c-4.7,9.8-4.5,9.7-14.5,5.7
	c-9.7-3.9-19.6-4.7-29.8-2.2c-7,1.8-10.5,5.6-10.9,11.7c-0.4,5.4,2.8,9.7,9.9,11.7c7.8,2.2,15.8,3.7,23.7,5.4
	c4.2,0.9,8.2,2.1,12.1,3.8c8.4,3.6,13.4,10,14.2,19.1c0.9,10.3-1.9,19.4-10.9,25.3C877.6,1125.6,869.1,1127.6,853.5,1127.2z"/>
<path class="st0" d="M681.6,696.2c-8.8-3.9-14.1-8.2-14-19.6c0.5-92.5,0-184.9,0.4-277.4c0-11.4-3.1-18-13.3-23.9
	c-46.6-27.4-92.7-55.8-138.8-84.2c-4.5-2.8-7.5-3.1-11.9-0.4c-47.4,29.2-94.9,58.2-142.5,87.1c-6.1,3.7-9.3,7.7-9.2,16
	c0.5,75.5,0.4,151,0.4,226.4c0,6,2.2,13.4-8.5,12.9c-6.1-0.3-8.3-1.9-8.3-8.5c0.1-79.6,0.1-159.3-0.1-238.9c0-8.1,2.7-12.7,9.7-17
	c53.1-32,106.1-64.4,158.9-97c4.3-2.7,6.8-2.2,10.8,0.2c53.6,32.7,107.4,65.1,161.2,97.5c4.6,2.8,6.8,6,6.8,11.7
	c-0.3,103.8-0.3,207.6-0.5,311.3C682.6,693.4,682.1,694.4,681.6,696.2z"/>
<path class="st0" d="M648.6,1072.5c0-8.6-0.1-17.3,0.1-25.9c0.1-3.1-0.8-4.6-4-4.2c-1.1,0.1-2.2,0.1-3.3,0c-3-0.4-7.7,1.5-8.8-0.9
	c-1.5-3.5-0.6-8.1-0.6-12.2c0-1.3,0.8-2,2.1-2.1c0.6,0,1.1,0.1,1.7,0.1c4.1-0.3,9.7,2.4,12-0.9c2.1-2.9,0.8-8.3,0.8-12.6
	c0.2-9.2,0.2-9.2,9.4-9.2c1.1,0,2.2,0.1,3.3,0c3.4-0.4,5.1,0.6,4.7,4.6c-0.4,4.5,0.2,9-0.2,13.5c-0.3,3.9,1.2,5,4.7,4.8
	c6.1-0.3,12.2-0.2,18.2-0.5c3-0.2,4.2,0.6,4.3,4c0.2,11.2,0.3,11.1-10.4,11.2c-5.3,0.1-12.1-2.3-15.5,0.9c-3.5,3.2-0.9,10.3-1,15.6
	c-0.2,12-0.2,24.1,0,36.1c0.1,14.9,10.5,21.6,23.9,15.1c3.3-1.6,4.5-1.6,6,2.2c3.7,10,2.6,12.4-8,14.2c-5.7,1-11.4,1-17.1,0.2
	c-13.7-1.9-22-12.7-22.3-28.9C648.4,1089.4,648.5,1081,648.6,1072.5C648.5,1072.5,648.6,1072.5,648.6,1072.5z"/>
<path class="st0" d="M352.6,332.1c43.2-26.3,83.7-51,124.3-75.7c9.5-5.8,19.3-10.9,28.5-17.1c4.1-2.8,6.5-1.4,9.9,0.6
	c71.8,44,143.6,88,215.4,131.9c15.5,9.5,30.8,19.6,46.8,28.1c8.7,4.6,6.1,11.7,5.2,17.4c-0.9,6-5.4,1-7.5-0.3
	C744,398.1,713,379,682,360c-54.2-33.1-108.5-66-162.5-99.5c-8.5-5.3-13.9-2.8-21.6,2c-43.8,27.4-88.1,53.9-132.2,80.8
	c-7,4.2-14.1,8.2-20.9,12.8c-6,4.1-8.8,4.4-8.6-4.5c0.3-15.8,0-31.7-0.5-47.5c-0.1-4,3.4-10.6-5.2-10.8c-8.2-0.2-5.9,6-5.9,10.4
	c-0.2,18.9-0.2,37.7,0,56.6c0.1,4.9-0.8,8.2-5.2,10.8c-12.8,7.6-25.3,15.6-37.9,23.5c-11.2,7.1-22.1,14.6-33.5,21.3
	c-3.1,1.8-7.8,8.7-10.4,2.9c-2.2-4.9-4.2-13.3,3.5-18c19.7-12,39.1-24.5,59-36c6.7-3.9,9.3-8,9.1-15.8c-0.6-21.1,0-42.3-0.6-63.4
	c-0.2-6.7,2-8.5,8.2-8.1c11.4,0.6,26-3.7,33.4,2c6.9,5.4,1.3,21.2,2.2,32.4C353,317.7,352.6,323.7,352.6,332.1z"/>
<path class="st0" d="M388.7,1237.1c0,21-0.1,42,0.1,63c0,4-0.7,5.6-5,5.5c-12.8-0.2-12.7,0-12.7-13.1c0.1-39.4,0.2-78.8,0-118.2
	c0-4.5,1-5.7,5.4-5.5c12.1,0.3,12.1,0.1,12.1,12.6c0,18.6,0,37.1,0,55.7C388.6,1237.1,388.6,1237.1,388.7,1237.1z"/>
<path class="st1" d="M593.3,579.5c-1.6-24,2.6-49-2.4-73.6c-8.6-42.7-46.6-70.3-91.4-66.6c-39.2,3.2-72,39.2-72.7,81.1
	c-0.6,34-0.1,67.9-0.1,101.9c0,5.4,1.5,10.9-8.1,10.8c-8.9-0.1-9.6-3.6-9.4-10.6c0.7-37-2.1-74,1.4-110.9
	c4.1-42.8,31.6-73.8,75.3-86.3c35.5-10.2,78.5,4.9,102.6,35.4c14,17.8,20.4,37.7,21.2,60.5c1.3,41.1,1,82.2,0.7,123.4
	c0,3.4,4.1,10.8-3.1,10.5c-6.2-0.3-14.2-1.6-14-12.2C593.6,621.9,593.3,601.1,593.3,579.5z"/>
<path class="st0" d="M844.6,1256.4c0-14.8,0.1-29.7-0.1-44.5c0-3.6,1-5.2,4.7-4.5c4.1,0.7,9.5-2.1,12.2,0.8
	c2.6,2.8,0.8,8.2,0.8,12.5c0.1,26.7,0,53.3,0.2,80c0,4.1-1.3,4.9-5,5c-12.8,0-12.8,0.2-12.8-12.6
	C844.6,1280.8,844.6,1268.6,844.6,1256.4z"/>
<path class="st1" d="M582.3,578.2c0,19.2,0.1,38.5-0.1,57.7c0,3.4,2.6,9.4-4.4,9.2c-5.9-0.1-12.4-0.3-13-8.9c-0.2-3-0.1-6-0.1-9
	c-0.1-35.1,0.1-70.1-0.2-105.2c-0.3-25.2-16.9-47.4-39-53.2c-25.3-6.6-50.3,3.5-63.2,25.7c-6.6,11.4-8.2,24.1-8.3,37
	c0,30.9,0.2,61.8,0.6,92.7c0.1,5.5-1.1,9.2-7,8.7c-4.9-0.4-10.3-0.2-10.2-8.4c0.4-35.4-1-70.9,0.6-106.3
	c1.8-40.4,35.9-69.9,75.6-68.1c37.6,1.7,68.1,34.4,68.4,73.6c0.1,18.1,0,36.2,0,54.3C582.1,578.2,582.2,578.2,582.3,578.2z"/>
<path class="st0" d="M494.3,1077c0,15.2-0.1,30.4,0.1,45.6c0,3.1-0.8,3.7-3.7,3.8c-13.9,0.5-13.9,0.5-13.9-13.7
	c0-26.7,0.1-53.4-0.1-80c0-4.3,1.2-5.4,5.2-5.4c12.4,0.2,12.3,0,12.3,12.4c0,12.4,0,24.8,0,37.2C494.2,1077,494.3,1077,494.3,1077z"
	/>
<path class="st0" d="M695.6,382.2c28.9,17.5,56.4,34.1,83.8,50.7c3.1,1.9,5.8,16.4,3.4,18.5c-2.7,2.4-4.8-0.3-6.8-1.5
	c-18.7-11.4-37.3-23-55.9-34.4c-2.4-1.5-4.7-4.8-7.7-3.1c-3.2,1.8-1.2,5.5-1.2,8.3c-0.1,98.8-0.1,197.6-0.1,297.9
	c-9.1-5.5-16.2-9.4-16.2-22.3c0.6-102.6,0.3-205.2,0.4-307.8C695.3,386.9,695.4,385.5,695.6,382.2z"/>
<path class="st1" d="M766.8,660c0-51.5,0-103,0-154.5c0-10.2-0.1-10.2-11.2-15.1c0,10.3,0,20,0,29.6c0,51.3-0.2,102.5,0.1,153.8
	c0.1,8.9-4.4,14.8-9.5,20.8c-1.2,1.4-2.5,3-4.6,2.4c-2.2-0.7-2-2.8-2-4.7c0-1.5,0-3,0-4.5c0-70.9,0.1-141.8,0.1-212.6
	c0-13.5-0.4-12,11.6-7.5c25.4,9.6,34.1,25.9,32.1,54c-2.7,37.1-0.1,74.5,0.1,111.9c0.1,11.5-8.1,18.7-13.4,27.3
	C769,660.6,767.9,660.3,766.8,660z"/>
<path class="st0" d="M324.6,380.8c0,55.2,0,107.6,0,160c0,27.5,0,55.1,0.4,82.6c0.1,6.6-1.2,9.2-8.4,9.5c-7.9,0.3-8-3.5-8-9.5
	c0.2-67.2,0.3-134.3,0.3-201.5c0-3.2,1.8-7.5-1.4-9.3c-3.2-1.8-6,1.9-8.7,3.6c-17,10.6-33.9,21.4-51,31.7c-3.2,2-8,8.2-10.7,3
	c-2.1-4.1-3.1-11.8,2.3-16.6c0.6-0.5,1.2-0.9,1.8-1.3C268.3,415.9,296.3,400.6,324.6,380.8z"/>
<path class="st1" d="M280.1,547.7c0,24.9-0.1,49.8,0.1,74.7c0,5.9-0.6,10-8.2,10.1c-7.9,0.1-8-4.4-7.9-10.1
	c0.1-40.4,0.3-80.7,0-121.1c0-3.5,3.6-10.6-3.3-10.5c-4.9,0.1-7.8,5.3-7.8,11.8c0.3,39.6,0.3,79.2,0.2,118.8
	c0,4.5,1.8,10.4-5.9,10.9c-6.3,0.4-10.4-0.5-10.3-8.9c0.3-42.2,0.1-84.5,0-126.7c0-4.9,1.1-9,4.9-12c8.7-6.9,17.5-13.5,27.3-18.8
	c8.2-4.4,11.3-2.2,11.3,7.1c-0.2,24.9-0.1,49.8-0.1,74.7C280.3,547.7,280.2,547.7,280.1,547.7z"/>
<path class="st0" d="M853.7,1167.2c6.7,0.2,12,5.2,12,11.3c-0.1,6.6-5.2,11.4-11.9,11.2c-7.1-0.2-11.7-4.8-11.5-11.6
	C842.4,1171.5,847,1167.1,853.7,1167.2z"/>
<path class="st0" d="M474.9,998.6c0-7.3,3.7-11.2,10.6-11.1c7.3,0.1,11.5,4.2,11.7,11.3c0.1,6.7-4.8,11.6-11.5,11.5
	C478.8,1010.2,474.9,1005.9,474.9,998.6z"/>
<path class="st1" d="M452.5,1290.6l0.4-0.2c0,0,0.4,0.3,0.4,0.3c-0.2,0.3-0.3,0.5-0.5,0.8C452.7,1291.2,452.6,1290.9,452.5,1290.6z"
	/>
</svg>
