<?xml version="1.0" encoding="utf-8"?>
<!-- Generator: Adobe Illustrator 21.0.2, SVG Export Plug-In . SVG Version: 6.00 Build 0)  -->
<svg version="1.1" id="Layer_1" xmlns="http://www.w3.org/2000/svg" xmlns:xlink="http://www.w3.org/1999/xlink" x="0px" y="0px"
	 viewBox="0 0 1080 1080" style="enable-background:new 0 0 1080 1080;" xml:space="preserve">
<style type="text/css">
	.st0{fill:#FFFFFF;}
	.st1{fill:#FFFFFF;}
</style>
<path class="st0" d="M13.9,542.4c1.2-124.3,41.1-234,122.2-326.8c56.1-64,125.3-108.7,205.7-135.4c97.7-32.4,195.9-33.6,293.4-1.9
	c99.8,32.5,181.8,92.3,243.7,179.1c42.7,59.9,69.6,127,82.4,199.9c7.5,42.9,9.7,86.3,5.1,129.5c-9.9,92.9-39.7,178.2-96.6,252.7
	c-12.7,16.7-26.3,32.4-40.6,47.7c-4.6,4.9-7.9,6.1-13.7,1.3c-10.7-8.8-22.2-16.5-33.5-24.6c-5.5-3.9-7.2-6.6-1-12.5
	c59.6-57.6,98.6-128,118.5-208.6c22.2-90,14.1-178.4-20.4-264.3c-36.8-91.6-98-162-181.9-210.8c-103.8-60.4-214.5-73.2-328.4-37.2
	c-115.1,36.4-200,111.5-254.1,221.5c-36.4,74.1-51.1,152.9-41.8,235.5c4.7,41.4,14,81.9,31.8,119.9c1.6,3.4,2.6,7,3.9,10.5
	c1.9,4.9,0.6,6.7-4.8,6.5c-16.1-0.5-32.2-0.8-48.2-0.8c-6.6,0-9.9-3.2-12-9.2C24,658.8,13.6,601.6,13.9,542.4z"/>
<path class="st1" d="M1066.1,943c-2.2,10.5-9.2,17-15.2,23.8c-48.5,54.8-108.1,68.3-176.6,49.3c-60.3-16.7-110.6-51.5-158.9-90.2
	c-32.8-26.3-65.6-52.6-101.9-74.1c-42.2-25.1-88.1-38-136.3-38.5c-122.7-1.3-245.4-0.8-368.1-0.4c-13.4,0-21.5-3.9-26.5-16.6
	c-4-9.9-9.4-19.3-14.6-28.6c-3.9-7-1.7-9.2,5.4-9c4.1,0.1,8.3-0.1,12.4-0.1c120.9,0,241.7,0.4,362.6-0.3
	c64.7-0.4,126.9,10.3,184.4,41.3c34,18.3,65.9,40.6,95.6,65.8c26.9,22.8,54.9,43.9,84.6,62.7c32.9,20.8,67,39.7,105.3,47.1
	c45.4,8.8,89.5,5.4,128.8-23.2c4.9-3.5,10-6.7,15.1-9.8C1062.7,941.8,1063.9,942.4,1066.1,943z"/>
<path class="st0" d="M120.5,846.1c25.4,0,48.2,0.1,71-0.1c4.3,0,6.6,2.8,9.2,5.3c45.3,44.3,98,76.6,156.9,98.2
	c64.9,23.7,131.7,26.4,199.5,16.5c34.8-5.1,67.9-15.8,100.1-29.7c8.4-3.6,14.9-4,22.2,3.2c9.2,9,19.7,16.8,30.2,24.5
	c5.4,4,7.8,6.3,0.1,10.2c-34,17.6-69.4,30.8-106.9,39.2c-20.9,4.7-41.8,8.7-63,11c-40.4,4.3-80.5,2.6-120.7-2.9
	c-57.6-7.9-111.7-26.7-162.1-55.7c-49.4-28.4-93.7-63.6-130.2-108.4C124.8,854.9,123.7,851.8,120.5,846.1z"/>
<path class="st0" d="M704.2,802.8c-11-4.9-17.5-10.2-17.4-24.4c0.6-114.8,0-229.7,0.5-344.5c0.1-14.2-3.9-22.3-16.5-29.7
	c-57.9-34.1-115.2-69.4-172.4-104.6c-5.5-3.4-9.3-3.9-14.8-0.5c-58.9,36.2-117.9,72.3-177,108.2c-7.6,4.6-11.5,9.6-11.5,19.8
	c0.6,93.7,0.5,187.5,0.5,281.2c0,7.5,2.7,16.6-10.6,16c-7.6-0.4-10.3-2.4-10.3-10.5c0.2-98.9,0.1-197.8-0.2-296.7
	c0-10,3.4-15.8,12.1-21.1c66-39.7,131.7-80,197.3-120.5c5.3-3.3,8.5-2.7,13.4,0.3C564,316.4,630.7,356.7,697.5,397
	c5.7,3.4,8.5,7.4,8.4,14.5c-0.3,128.9-0.4,257.8-0.6,386.6C705.4,799.4,704.8,800.6,704.2,802.8z"/>
<path class="st0" d="M295.6,350.6c53.6-32.7,103.9-63.4,154.3-94c11.8-7.1,24-13.5,35.4-21.2c5.1-3.4,8.1-1.8,12.2,0.8
	c89.1,54.7,178.3,109.2,267.5,163.8c19.3,11.8,38.2,24.3,58.1,34.9c10.8,5.7,7.5,14.6,6.4,21.6c-1.1,7.4-6.7,1.2-9.3-0.4
	c-38.6-23.4-77.1-47.2-115.7-70.7c-67.3-41.1-134.8-82-201.8-123.5c-10.6-6.6-17.3-3.5-26.8,2.4c-54.4,34-109.4,67-164.1,100.3
	c-8.7,5.3-17.6,10.2-26,15.9c-7.5,5.1-10.9,5.5-10.6-5.5c0.4-19.7,0.1-39.4-0.6-59c-0.2-5,4.2-13.2-6.5-13.4
	c-10.2-0.2-7.3,7.5-7.4,12.9c-0.2,23.4-0.3,46.9,0,70.3c0.1,6-1,10.2-6.5,13.5c-15.8,9.4-31.4,19.3-47,29.2
	c-13.9,8.8-27.4,18.1-41.6,26.4c-3.8,2.2-9.7,10.8-13,3.5c-2.7-6.1-5.3-16.5,4.4-22.4c24.4-14.9,48.5-30.4,73.3-44.7
	c8.4-4.8,11.6-10,11.3-19.7c-0.7-26.2-0.1-52.5-0.7-78.7c-0.2-8.3,2.5-10.5,10.2-10.1c14.2,0.8,32.3-4.5,41.4,2.5
	c8.6,6.7,1.6,26.3,2.7,40.2C296.1,332.8,295.6,340.1,295.6,350.6z"/>
<path class="st1" d="M594.5,657.9c-2-29.8,3.2-60.8-3-91.5c-10.7-53.1-57.8-87.4-113.5-82.8c-48.7,4-89.4,48.6-90.3,100.7
	c-0.8,42.2-0.1,84.4-0.1,126.6c0,6.8,1.8,13.5-10.1,13.4c-11-0.1-11.9-4.4-11.7-13.2c0.9-45.9-2.6-91.9,1.8-137.7
	c5-53.2,39.2-91.6,93.5-107.2c44.1-12.7,97.5,6.1,127.4,44c17.4,22.1,25.4,46.8,26.3,75.1c1.6,51.1,1.2,102.1,0.9,153.2
	c0,4.2,5.1,13.4-3.9,13c-7.7-0.4-17.7-1.9-17.4-15.2C594.9,710.5,594.5,684.7,594.5,657.9z"/>
<path class="st1" d="M580.9,656.2c0,23.9,0.2,47.8-0.2,71.6c-0.1,4.3,3.2,11.6-5.5,11.5c-7.3-0.1-15.4-0.4-16.1-11
	c-0.3-3.7-0.1-7.5-0.2-11.2c-0.1-43.5,0.2-87.1-0.3-130.6c-0.3-31.3-21-58.9-48.5-66c-31.4-8.2-62.4,4.4-78.4,32
	c-8.2,14.1-10.2,29.9-10.3,45.9c0,38.4,0.2,76.8,0.7,115.1c0.1,6.8-1.4,11.4-8.7,10.9c-6.1-0.5-12.8-0.2-12.7-10.4
	c0.5-44-1.2-88.1,0.8-132c2.3-50.2,44.6-86.8,93.9-84.5c46.7,2.2,84.5,42.7,84.9,91.4c0.2,22.5,0,44.9,0,67.4
	C580.6,656.2,580.7,656.2,580.9,656.2z"/>
<path class="st0" d="M721.5,412.8c35.9,21.7,70,42.3,104.1,63c3.8,2.3,7.1,20.4,4.3,23c-3.4,3-6-0.4-8.5-1.9
	c-23.2-14.2-46.3-28.6-69.5-42.7c-3-1.8-5.8-6-9.6-3.9c-3.9,2.2-1.4,6.8-1.4,10.2c-0.1,122.7-0.1,245.4-0.1,370
	c-11.3-6.9-20.2-11.7-20.1-27.7c0.7-127.4,0.4-254.8,0.5-382.2C721.2,418.7,721.3,416.9,721.5,412.8z"/>
<path class="st1" d="M810,757.8c0-64,0-127.9,0-191.9c0-12.6-0.2-12.6-13.9-18.8c0,12.8,0,24.8,0,36.8c0,63.7-0.2,127.3,0.1,191
	c0.1,11.1-5.5,18.4-11.8,25.8c-1.5,1.7-3.1,3.8-5.7,3c-2.8-0.8-2.5-3.5-2.5-5.8c-0.1-1.9,0-3.7,0-5.6c0.1-88,0.1-176,0.2-264.1
	c0-16.8-0.5-14.9,14.4-9.3c31.6,11.9,42.4,32.2,39.8,67c-3.4,46-0.1,92.6,0.1,138.9c0.1,14.3-10.1,23.2-16.6,34
	C812.7,758.5,811.3,758.2,810,757.8z"/>
<path class="st0" d="M260.8,411.1c0,68.5,0,133.6,0,198.7c0,34.2-0.1,68.4,0.5,102.6c0.1,8.2-1.5,11.5-10.4,11.8
	c-9.8,0.4-9.9-4.3-9.9-11.9c0.3-83.4,0.4-166.8,0.4-250.2c0-3.9,2.3-9.3-1.7-11.6c-4-2.3-7.4,2.3-10.8,4.4
	c-21.1,13.2-42,26.6-63.3,39.4c-4,2.4-10,10.2-13.3,3.7c-2.6-5.1-3.9-14.6,2.9-20.7c0.7-0.6,1.5-1.1,2.3-1.6
	C190.8,454.7,225.6,435.7,260.8,411.1z"/>
<path class="st1" d="M205.6,618.4c0,30.9-0.1,61.8,0.1,92.7c0,7.4-0.7,12.4-10.1,12.5c-9.8,0.1-9.9-5.4-9.9-12.6
	c0.2-50.1,0.4-100.2,0-150.3c0-4.4,4.5-13.2-4-13.1c-6.1,0.1-9.7,6.6-9.7,14.6c0.4,49.2,0.3,98.3,0.3,147.5c0,5.6,2.2,13-7.4,13.6
	c-7.8,0.5-12.9-0.6-12.8-11c0.4-52.4,0.2-104.9,0-157.4c0-6,1.4-11.2,6.1-14.9c10.8-8.5,21.8-16.7,33.9-23.3
	c10.1-5.5,14.1-2.7,14,8.8c-0.2,30.9-0.1,61.8-0.1,92.7C205.8,618.4,205.7,618.4,205.6,618.4z"/>
</svg>
